<?xml version="1.0" encoding="UTF-8"?>
<svg width="68px" height="68px" viewBox="0 0 68 68" version="1.1" xmlns="http://www.w3.org/2000/svg" xmlns:xlink="http://www.w3.org/1999/xlink">
    <title>apple</title>
    <defs>
        <linearGradient x1="49.8966667%" y1="101.27%" x2="49.05%" y2="0%" id="linearGradient-1">
            <stop stop-color="#822CBE" offset="0%"></stop>
            <stop stop-color="#D772FB" offset="100%"></stop>
        </linearGradient>
    </defs>
    <g id="Page-1" stroke="none" stroke-width="1" fill="none" fill-rule="evenodd">
        <g id="apple" fill-rule="nonzero">
            <rect id="Rectangle" fill="url(#linearGradient-1)" x="0" y="0" width="68" height="68" rx="34"></rect>
            <path d="M31.9237333,59.5317333 C29.8950667,58.8064 29.4598667,57.8204 28.628,52.0426667 C27.6601333,45.3265333 27.4493333,41.1694667 28.0092,39.8525333 C28.7526667,38.1072 30.77,37.1166667 33.592,37.105238 C36.3913333,37.094 38.4268,38.0936 39.1748,39.8525333 C39.7369333,41.1672 39.5261333,45.3265333 38.5582667,52.0426667 C37.9009333,56.7346667 37.5382667,57.9201333 36.6316,58.718 C35.3849333,59.8218667 33.6169333,60.1278667 31.9396,59.534 L31.9237333,59.5317333 Z M23.2582667,52.6410667 C16.2542667,49.1957333 11.7662667,43.3658667 10.1342667,35.6093333 C9.72626667,33.6078667 9.65826667,28.832 10.0436,26.996 C11.0636,22.066 13.0129333,18.2104 16.2542667,14.8013333 C20.9236,9.87813333 26.9302667,7.276 33.6169333,7.276 C40.2356,7.276 46.2196,9.83053333 50.7756,14.6064 C54.2436,18.2104 56.1929333,22.0252 57.1902667,27.0504 C57.5302667,28.7232 57.5302667,33.2837333 57.2129333,35.1650667 C56.1702667,41.1128 52.8609333,46.5301333 48.0329333,50.1704 C46.3102667,51.4714667 42.0942667,53.7426667 41.4142667,53.7426667 C41.1649333,53.7426667 41.1422667,53.4842667 41.2556,52.4393333 C41.4596,50.762 41.6636,50.4129333 42.6156,50.014 C44.1342667,49.3793333 46.7182667,47.5388 48.3049333,45.9476 C51.0476,43.2276 53.0649333,39.6689333 53.9942667,35.9289333 C54.5836,33.5942667 54.5156,28.4036 53.8582667,26.0009333 C51.7956,18.3622667 45.5622667,12.4236 37.9236,10.8369333 C35.7022667,10.3836 31.6676,10.3836 29.4236,10.8369333 C21.6942667,12.4236 15.3022667,18.6569333 13.3529333,26.4996 C12.8316,28.6302667 12.8316,33.8209333 13.3529333,35.9516 C14.6449333,41.1422667 17.9996,45.9022667 22.3969333,48.7356 C23.2582667,49.3022667 24.3009333,49.8916 24.7316,50.0729333 C25.6836,50.4809333 25.8876,50.8209333 26.0689333,52.4982667 C26.1822667,53.5182667 26.1596,53.8129333 25.9102667,53.8129333 C25.7516,53.8129333 24.5956,53.3142667 23.3716,52.7249333 L23.2582667,52.6410667 Z M23.3489333,43.4202667 C20.9916,41.5389333 18.9062667,38.2024 18.0449333,34.9293333 C17.5236,32.9528 17.5236,29.1946667 18.0676,27.2226667 C19.4956,21.9005333 23.4169333,17.7752 28.8569333,15.8372 C30.7156,15.1798667 34.8409333,15.0325333 37.1302667,15.538 C45.0182667,17.2946667 50.6169333,25.194 49.5289333,33.0298667 C49.0982667,36.1873333 48.0102667,38.7804 46.0836,41.1898667 C45.1316,42.4070667 42.8196,44.4493333 42.4116,44.4493333 C42.3436,44.4493333 42.2756,43.6786667 42.2756,42.7402667 L42.2756,41.0266667 L43.4542667,39.6213333 C47.8969333,34.2992 47.5796,26.8645333 42.7289333,21.9866667 C40.8476,20.0872 38.6716,18.972 35.8609333,18.4574667 C34.0476,18.122 33.6622667,18.122 31.7582667,18.4348 C28.8682667,18.9062667 26.6288,20.026 24.6409333,21.9934667 C19.7676,26.8214667 19.4502667,34.2946667 23.8929333,39.6213333 L25.0625333,41.0266667 L25.0625333,42.7493333 C25.0625333,43.7013333 24.9877333,44.472 24.8948,44.472 C24.8041333,44.472 24.1468,44.0186667 23.4441333,43.452 L23.3489333,43.4202667 Z M31.2142667,34.1654667 C29.1969333,33.2270667 28.1089333,31.4568 28.0862667,29.1493333 C28.0862667,27.0753333 29.2422667,25.2665333 31.2369333,24.208 C32.5062667,23.5416 34.7502667,23.5416 36.0196,24.2125333 C37.4022667,24.9310667 38.5356,26.3250667 38.9662667,27.7802667 C40.2809333,32.2501333 35.5436,36.1669333 31.2596,34.1654667 L31.2142667,34.1654667 Z" id="Shape" fill="#FFFFFF"></path>
            <circle id="Oval" fill="#FFFFFF" cx="33.9750667" cy="29.3918667" r="5.65306667"></circle>
            <path d="M34.5168,37.2345333 C34.9089333,37.2866667 35.6886667,37.3886667 36.4094667,37.6198667 C37.1348,37.8465333 37.7921333,38.2024 38.3044,38.5673333 C38.8030667,38.93 39.1657333,39.3062667 39.3924,39.7641333 C39.6190667,40.222 39.7324,40.766 39.8004,41.6568 C39.8457333,42.5498667 39.8457333,43.7874667 39.6417333,46.0994667 C39.4377333,48.4046667 39.0297333,51.7842667 38.7124,53.9489333 C38.3950667,56.1249333 38.1684,57.0769333 37.8737333,57.7796 C37.5790667,58.5049333 37.1937333,58.9809333 36.7630667,59.3209333 C36.3324,59.6609333 35.8337333,59.8649333 35.3577333,59.9782667 C34.8817333,60.0916 34.4510667,60.0916 34.0430667,60.0916 C33.6350667,60.0916 33.2497333,60.0916 32.7284,59.9782667 C32.2070667,59.8649333 31.5270667,59.6609333 31.0284,59.2529333 C30.5070667,58.8449333 30.1670667,58.2556 29.8950667,57.4849333 C29.6230667,56.7142667 29.4190667,55.7849333 29.1470667,53.9262667 C28.8750667,52.0676 28.5124,49.3022667 28.2857333,47.1942667 C28.0590667,45.0862667 27.9684,43.6356 27.9502667,42.6609333 C27.9276,41.6862667 27.9729333,41.2034667 28.0862667,40.7342667 C28.1996,40.2809333 28.3809333,39.8502667 28.6302667,39.4876 C28.8796,39.1249333 29.206,38.8076 29.5369333,38.5582667 C29.8610667,38.3089333 30.1942667,38.1276 30.5932,37.9870667 C30.9876,37.8284 31.4613333,37.6924 32.0438667,37.5790667 C32.6332,37.4657333 33.3132,37.3524 33.6622667,37.3070667 C34.0113333,37.2549333 34.0113333,37.2549333 34.4012,37.3070667 L34.5168,37.2345333 Z" id="Path" fill="#FFFFFF"></path>
        </g>
    </g>
</svg>