<?xml version="1.0" encoding="UTF-8"?>
<svg width="68px" height="68px" viewBox="0 0 68 68" version="1.1" xmlns="http://www.w3.org/2000/svg" xmlns:xlink="http://www.w3.org/1999/xlink">
    <title>audible</title>
    <g id="Page-1" stroke="none" stroke-width="1" fill="none" fill-rule="evenodd">
        <g id="audible">
            <circle id="background" fill="#F8991C" cx="34" cy="34" r="34"></circle>
            <polygon id="Path" fill="#FFFFFF" fill-rule="nonzero" points="33.9710526 43.5631579 55.8842105 29.9 55.8842105 33.6052632 33.9710526 47.3263158 12.0289474 33.6052632 12.0289474 29.9"></polygon>
            <path d="M33.9710526,26.4263158 C29.0210526,26.4263158 24.6789474,28.9157895 22.1894737,32.7657895 L22.1894737,32.7657895 C22.3921053,32.5631579 22.5078947,32.4473684 22.7105263,32.3026316 C28.8763158,27.1789474 37.7631579,28.3368421 42.5973684,34.7921053 L45.8105263,32.7368421 L45.8105263,32.7368421 C43.2631579,29.0026316 38.8921053,26.4263158 33.9710526,26.4263158" id="Path" fill="#FFFFFF" fill-rule="nonzero"></path>
            <path d="M33.9710526,32.7657895 C31.2789474,32.7657895 28.9052632,34.1263158 27.4868421,36.0947368 C28.6447368,35.2552632 29.9763158,34.8210526 31.3947368,34.8210526 C33.7684211,34.8210526 35.8815789,36.0368421 37.3,38.0921053 L40.3684211,36.1815789 L40.3684211,36.1815789 C39.0368421,34.0684211 36.6631579,32.7657895 33.9710526,32.7657895" id="Path" fill="#FFFFFF" fill-rule="nonzero"></path>
            <path d="M19.15,27.2078947 C28.1815789,20.0868421 40.9473684,22.0263158 47.75,31.4921053 L47.8078947,31.55 L51.1368421,29.4947368 L51.1368421,29.4947368 C47.4894737,23.9078947 41.15,20.2026316 33.9710526,20.2026316 C26.85,20.2026316 20.5105263,23.85 16.8052632,29.4947368 C17.4710526,28.7421053 18.3105263,27.8447368 19.15,27.2078947" id="Path" fill="#FFFFFF" fill-rule="nonzero"></path>
        </g>
    </g>
</svg>