<?xml version="1.0" encoding="UTF-8"?>
<svg width="68px" height="68px" viewBox="0 0 68 68" version="1.1" xmlns="http://www.w3.org/2000/svg" xmlns:xlink="http://www.w3.org/1999/xlink">
    <title>breaker</title>
    <defs>
        <linearGradient x1="49.9993164%" y1="-0.000157213867%" x2="49.9993164%" y2="100%" id="linearGradient-1">
            <stop stop-color="#FF40C0" offset="0%"></stop>
            <stop stop-color="#FF7066" offset="100%"></stop>
        </linearGradient>
    </defs>
    <g id="Page-1" stroke="none" stroke-width="1" fill="none" fill-rule="evenodd">
        <g id="breaker">
            <rect id="Rectangle" fill="url(#linearGradient-1)" fill-rule="nonzero" x="0" y="0" width="68" height="68" rx="34"></rect>
            <path d="M29.2308359,45.4844297 C30.9684883,50.7974609 33.7566211,55.630707 37.3646719,59.7341484 C44.1204453,58.8595117 50.0613477,55.3867305 54.1523711,50.3506133 C50.8169844,51.2308281 47.3145859,51.6997227 43.7026172,51.6997227 C40.8135469,51.6997227 37.9944688,51.3926602 35.2749336,50.8221641 C32.438125,50.2460898 30.1409336,48.1843086 29.2308359,45.4844297 Z" id="Path" fill="#1269FF" fill-rule="nonzero"></path>
            <path d="M34,59.9503008 C35.1402617,59.9503008 36.2632578,59.8767891 37.3646719,59.7342148 C33.7566211,55.630707 30.9684883,50.7974609 29.2309023,45.4844961 C28.9574414,44.6732773 28.8092227,43.8044844 28.8092227,42.9010937 C28.8092227,40.8731797 29.5560273,39.0197148 30.7895898,37.6006797 C26.0685039,42.8780508 22.6975234,49.3901797 21.2243672,56.5928672 C24.9959102,58.7301523 29.3554805,59.9503008 34,59.9503008 Z" id="Path" fill="#5C9DFF" fill-rule="nonzero"></path>
            <path d="M8.76994141,40.0970898 C10.4712031,47.1623828 15.0631289,53.1013594 21.2243672,56.5929336 C22.6995156,49.3805508 26.0758086,42.8605859 30.8068555,37.5794961 C32.2883789,35.8870664 34.4661055,34.8181914 36.892125,34.8181914 C37.4305469,34.8181914 37.9566172,34.8708516 38.4655547,34.9712578 C35.7595664,34.4066719 32.9552305,34.1023984 30.0815664,34.1023984 C22.271793,34.1023984 14.9740117,36.2945352 8.76994141,40.0970898 Z" id="Path" fill="#9EC6FF" fill-rule="nonzero"></path>
            <path d="M38.4655547,34.9712578 C35.7595664,34.4066719 32.9552305,34.1023984 30.0815664,34.1023984 C22.271793,34.1023984 14.9740117,36.2945352 8.76994141,40.0970898 C8.29912109,38.1416914 8.04969922,36.0999648 8.04969922,34 C8.04969922,25.9073359 11.7541055,18.6798125 17.5597383,13.9207422 C30.2849023,17.762543 40.3781875,27.6669023 44.5251914,40.2567969 C44.5638398,40.3675625 44.6001641,40.4793906 44.6340977,40.5922148 C44.5982383,40.4801875 44.5619805,40.3683594 44.5251914,40.2567969 C43.5917852,37.5818867 41.2935977,35.5292695 38.4655547,34.9712578 Z" id="Path" fill="#D1E3FF" fill-rule="nonzero"></path>
            <path d="M58.6713828,29.3186914 C58.6713828,17.8341953 49.1022422,8.04969922 33.9986055,8.04969922 C27.7590078,8.04969922 22.033793,10.2517969 17.5576797,13.921207 C30.3971953,17.7995977 40.5601406,27.8333828 44.6327031,40.5922148 C44.8701719,41.3386875 45.0867227,42.1332383 45.2817578,42.897707 C52.6600898,42.7346797 58.6713828,36.7341445 58.6713828,29.3186914 Z" id="Path" fill="#FFFFFF" fill-rule="nonzero"></path>
            <path d="M44.0368398,43.2133359 C43.8470508,42.4689219 43.5447031,41.3859688 43.3145391,40.6610781 C42.523043,38.411168 40.5859727,36.6904492 38.2185234,36.2233477 C37.7693516,36.1332344 37.3669297,36.0928594 36.892125,36.0943867 C34.8491367,36.0943867 33.0165234,36.9928633 31.7670898,38.4200664 C30.6670703,39.6664453 30.0617773,41.1266523 30.0854844,42.9010937 C30.0809023,43.6968398 30.1949219,44.361168 30.4402266,45.0768281 C31.2066211,47.3503125 33.1512617,49.0886289 35.5369727,49.5730625 C38.1948164,50.1322695 40.8827422,50.4254531 43.7026836,50.4235273 C47.2297187,50.4263828 50.5690234,49.9790039 53.8267148,49.1166523 L54.8779258,48.8392734 L55.4233203,50.8102109 L55.1429531,51.1553906 C50.8527773,56.4366133 44.6198867,60.0817852 37.5285625,60.999918 C36.3869727,61.1470078 35.1819648,61.2258984 34,61.2265625 C29.1818281,61.2147422 24.5056992,59.9085313 20.595168,57.7032461 C14.1329766,54.041207 9.31487109,47.8118359 7.52920703,40.3958516 C7.04324609,38.3688008 6.77582813,36.1775273 6.7734375,34 C6.7734375,25.508832 10.6619883,17.9247734 16.7506445,12.9337461 C21.3940352,9.14819141 27.5274492,6.79488672 34,6.7734375 C49.6854219,6.7734375 59.9490391,17.0130156 59.9490391,29.3186914 C59.9490391,37.4468164 53.3622695,44.0013789 45.3008164,44.1738359 L44.287457,44.1955508 L44.0368398,43.2133359 Z M45.7414219,39.8698477 C41.7893867,27.488668 32.3802187,17.9045195 20.2732305,13.4806016 C24.2081992,10.8117344 28.8501953,9.30756641 34,9.32579419 C48.5164727,9.32579419 57.3965156,18.6519883 57.3965156,29.3186914 C57.3965156,35.6938906 52.4790664,40.9326797 46.2376094,41.5615469 C46.0737852,40.9692031 45.8920312,40.3438555 45.7414219,39.8698477 Z M9.32594293,34 C9.32594293,26.5506133 12.6257539,19.8729336 17.8477422,15.3469492 C27.7780664,18.5294687 35.9162187,25.3237578 40.6663906,34.3365469 C40.0498086,34.0632187 39.3979648,33.8548359 38.719293,33.7204297 C35.9540039,33.1455508 33.0216367,32.8279961 30.0815664,32.8261367 C22.7303945,32.8386211 15.6850234,34.7754258 9.66230859,38.1026445 C9.43745703,36.7711328 9.32430078,35.4175742 9.32594293,34 Z M31.2982617,35.3963242 C30.7695352,35.7907773 30.2840391,36.2396836 29.8503398,36.7344766 C25.4188516,41.7040547 22.0691875,47.8818281 20.3778867,54.576375 C15.5162188,51.3510898 11.8646055,46.4497109 10.2462188,40.7003242 C16.1126133,37.2782773 22.7946094,35.3656445 30.0815664,35.3785284 C30.489832,35.3783281 30.8952422,35.3842383 31.2982617,35.3963242 Z M34,58.6741319 C29.8622266,58.6850625 26.0909492,57.7144687 22.6724219,55.9294687 C23.6565625,51.6027031 25.3323906,47.5891758 27.5984375,43.9570859 C27.6765977,44.6265938 27.8218281,45.2890625 28.0178594,45.881207 C29.5394258,50.5149023 31.8831016,54.8731445 34.8248984,58.6613555 C34.552832,58.6700547 34.2782422,58.6743047 34,58.6741319 Z M37.8730781,58.3720234 C36.0603867,56.2434375 34.488418,53.9487031 33.1714492,51.491207 C33.7578164,51.7454766 34.3753945,51.9415078 35.0170781,52.0720625 C37.797043,52.6534492 40.7458125,52.974125 43.7026836,52.9760508 C45.9606289,52.9742578 48.2068867,52.7907109 50.3910547,52.4433398 C46.9443711,55.508918 42.6342734,57.6216328 37.8730781,58.3720234 Z" id="Shape" fill="#003DAD"></path>
        </g>
    </g>
</svg>