<?xml version="1.0" encoding="UTF-8"?>
<svg width="68px" height="68px" viewBox="0 0 68 68" version="1.1" xmlns="http://www.w3.org/2000/svg" xmlns:xlink="http://www.w3.org/1999/xlink">
    <title>google</title>
    <g id="Page-1" stroke="none" stroke-width="1" fill="none" fill-rule="evenodd">
        <g id="google">
            <circle id="Oval" fill="#FFFFFF" cx="34" cy="34" r="34"></circle>
            <path d="M17.5,32.4999609 L17.5,35.5000391 C17.5,37.0188125 16.2687734,38.2500391 14.75,38.2500391 C13.2312266,38.2500391 12,37.0188125 12,35.5000391 L12,32.4999609 C12,30.9811875 13.2312266,29.7499609 14.75,29.7499609 C16.2687734,29.7499609 17.5,30.9811875 17.5,32.4999609 Z" id="Path" fill="#0066D9" fill-rule="nonzero"></path>
            <path d="M50.5011172,32.5781641 C50.5003809,32.5521028 50.5,32.5260326 50.5,32.4999609 C50.5,30.9811875 51.7312266,29.7499609 53.25,29.7499609 C54.7687734,29.7499609 56,30.9811875 56,32.4999609 C56,32.5260859 55.9996563,32.5522109 55.9988828,32.5781641 L56,32.5781641 L56,35.5781562 L55.9988828,35.5781562 C55.9576328,37.06075 54.7426484,38.2499609 53.25,38.2499609 C51.7573516,38.2499609 50.5424531,37.06075 50.5011172,35.5781562 L50.5,35.5781562 L50.5,32.5780781 L50.5011172,32.5780781 L50.5011172,32.5781641 Z" id="Path" fill="#4285F4" fill-rule="nonzero"></path>
            <path d="M26.9999609,41.5000234 L26.9999609,44.5000156 C26.9999609,46.0187891 25.7688203,47.2500156 24.2499609,47.2500156 C22.7311016,47.2500156 21.4999609,46.0187891 21.4999609,44.5000156 L21.4999609,41.4999375 C21.4999609,39.98125 22.7311875,38.7499375 24.2499609,38.7499375 C25.7687344,38.7499375 26.9999609,39.98125 26.9999609,41.4999375 L26.9999609,41.5000234 Z M26.9999609,23.4999844 L26.9999609,33.3125 L26.9992734,33.3125 C26.9661016,34.8023984 25.7478516,36.0000234 24.2499609,36.0000234 C22.7520703,36.0000234 21.5339062,34.8023984 21.5007344,33.3125 L21.4999609,33.3125 L21.4999609,23.4999844 C21.4999609,21.9812109 22.7311875,20.7499844 24.2499609,20.7499844 C25.7687344,20.7499844 26.9999609,21.9812109 26.9999609,23.4999844 L26.9999609,23.4999844 Z" id="Shape" fill="#EA4335" fill-rule="nonzero"></path>
            <path d="M41.0000391,26.4999766 C41.0000391,28.01875 42.2311797,29.2499844 43.7500391,29.2499844 C45.2688984,29.2499844 46.5000391,28.01875 46.5000391,26.4999766 L46.5000391,23.4999844 C46.5000391,21.9812109 45.2688125,20.7499844 43.7500391,20.7499844 C42.2312656,20.7499844 41.0000391,21.9812109 41.0000391,23.4999844 L41.0000391,26.4999766 Z" id="Path" fill="#34A853" fill-rule="nonzero"></path>
            <path d="M31.25,17.7500781 C31.25,19.2687656 32.4812266,20.5000781 34,20.5000781 C35.5187734,20.5000781 36.75,19.2687656 36.75,17.7500781 L36.75,14.75 C36.75,13.2312266 35.5187734,12 34,12 C32.4812266,12 31.25,13.2312266 31.25,14.75 L31.25,17.7500781 Z M31.25,50.2499219 C31.25,48.7312344 32.4812266,47.4999219 34,47.4999219 C35.5187734,47.4999219 36.75,48.7312344 36.75,50.2499219 L36.75,53.25 C36.75,54.7687734 35.5187734,56 34,56 C32.4812266,56 31.25,54.7687734 31.25,53.25 L31.25,50.2499219 Z" id="Shape" fill="#FAB908" fill-rule="nonzero"></path>
            <path d="M41.0000391,34.7499766 C41.0000391,33.2312031 42.2311797,31.9999766 43.7500391,31.9999766 C45.2688984,31.9999766 46.5000391,33.2312031 46.5000391,34.7499766 L46.5000391,44.5000156 C46.5000391,46.0187891 45.2688125,47.2500156 43.7500391,47.2500156 C42.2312656,47.2500156 41.0000391,46.0187891 41.0000391,44.5000156 L41.0000391,34.7499766 Z" id="Path" fill="#34A853" fill-rule="nonzero"></path>
            <path d="M36.75,26.0000781 L36.75,41.9999219 C36.75,43.5187813 35.5187734,44.7499219 34,44.7499219 C32.4812266,44.7499219 31.25,43.5187813 31.25,41.9999219 L31.25,26.0000781 C31.25,24.4812188 32.4812266,23.2500781 34,23.2500781 C35.5187734,23.2500781 36.75,24.4812188 36.75,26.0000781 Z" id="Path" fill="#FAB908" fill-rule="nonzero"></path>
        </g>
    </g>
</svg>