<?xml version="1.0" encoding="UTF-8"?>
<svg width="68px" height="68px" viewBox="0 0 68 68" version="1.1" xmlns="http://www.w3.org/2000/svg" xmlns:xlink="http://www.w3.org/1999/xlink">
    <title>instagram</title>
    <defs>
        <radialGradient cx="26.5626266%" cy="107.702106%" fx="26.5626266%" fy="107.702106%" r="99.107386%" id="radialGradient-1">
            <stop stop-color="#FFDD55" offset="0%"></stop>
            <stop stop-color="#FFDD55" offset="10%"></stop>
            <stop stop-color="#FF543E" offset="50%"></stop>
            <stop stop-color="#C837AB" offset="100%"></stop>
        </radialGradient>
        <radialGradient cx="-13.7506495%" cy="7.32852711%" fx="-13.7506495%" fy="7.32852711%" r="50.2649655%" id="radialGradient-2">
            <stop stop-color="#3771C8" offset="0%"></stop>
            <stop stop-color="#3771C8" offset="12.8%"></stop>
            <stop stop-color="#6600FF" stop-opacity="0" offset="100%"></stop>
        </radialGradient>
    </defs>
    <g id="Page-1" stroke="none" stroke-width="1" fill="none" fill-rule="evenodd">
        <g id="instagram">
            <circle id="Oval" fill="url(#radialGradient-1)" cx="34" cy="34" r="34"></circle>
            <circle id="Oval" fill="url(#radialGradient-2)" cx="34" cy="34" r="34"></circle>
            <path d="M33.7419719,14.8923077 C28.6047102,14.8923077 27.959991,14.9149432 25.9422877,15.0074708 C23.9285253,15.1003955 22.5539649,15.4216608 21.3512246,15.8930352 C20.1071056,16.379897 19.0517523,17.0311641 18.0003397,18.0910615 C16.948139,19.1505619 16.3018434,20.2140334 15.8171217,21.4673254 C15.3481633,22.6797147 15.0289564,24.0652457 14.9383174,26.0937043 C14.8480724,28.1269284 14.8244275,28.7770041 14.8244275,33.9537832 C14.8244275,39.1305622 14.8472843,39.7782553 14.9387115,41.8114793 C15.0313209,43.8407322 15.3501338,45.2258661 15.8175158,46.4378583 C16.3010552,47.6915474 16.9473508,48.7550189 17.9991575,49.8145192 C19.0501759,50.8748138 20.1055293,51.5276694 21.3488601,52.0145312 C22.5523886,52.4859056 23.927343,52.8071709 25.9407114,52.9000956 C27.9584146,52.9926232 28.6027398,53.0152587 33.7396074,53.0152587 C38.8772631,53.0152587 39.5200119,52.9926232 41.5377152,52.9000956 C43.5514776,52.8071709 44.9276143,52.4859056 46.1311428,52.0145312 C47.3748677,51.5276694 48.4286447,50.8748138 49.4796632,49.8145192 C50.5318639,48.7550189 51.1781595,47.6915474 51.6628812,46.4382554 C52.1278987,45.2258661 52.4471057,43.8403351 52.5416855,41.8118764 C52.6323245,39.7786524 52.6559695,39.1305622 52.6559695,33.9537832 C52.6559695,28.7770041 52.6323245,28.1273255 52.5416855,26.0941015 C52.4471057,24.0648485 52.1278987,22.6797147 51.6628812,21.4677225 C51.1781595,20.2140334 50.5318639,19.1505619 49.4796632,18.0910615 C48.4274625,17.030767 47.3752617,16.3794999 46.1299605,15.8930352 C44.9240675,15.4216608 43.548719,15.1003955 41.5349566,15.0074708 C39.5172533,14.9149432 38.8748986,14.8923077 33.7360606,14.8923077 L33.7419719,14.8923077 Z M32.0450519,18.3273444 C32.5486895,18.3265502 33.1106514,18.3273444 33.7419719,18.3273444 C38.7925353,18.3273444 39.3911469,18.3456117 41.3855993,18.4369479 C43.2299062,18.5219303 44.2308761,18.8324735 44.897664,19.0933775 C45.7804092,19.4388667 46.4097592,19.8518653 47.071424,20.519017 C47.7334829,21.1861686 48.1433289,21.8215511 48.4869689,22.7110867 C48.7458813,23.3822095 49.054448,24.3908792 49.1383876,26.2493731 C49.2290266,28.2587703 49.2487307,28.8623837 49.2487307,33.9494149 C49.2487307,39.0364462 49.2290266,39.6400596 49.1383876,41.6494568 C49.0540539,43.5079507 48.7458813,44.5166204 48.4869689,45.1877432 C48.144117,46.0772787 47.7334829,46.7106757 47.071424,47.3774302 C46.4093651,48.0445818 45.7808033,48.4575805 44.897664,48.8030697 C44.2316643,49.065165 43.2299062,49.374914 41.3855993,49.4598964 C39.391541,49.5512326 38.7925353,49.5710883 33.7419719,49.5710883 C28.6910143,49.5710883 28.0924027,49.5512326 26.0983444,49.4598964 C24.2540375,49.3741197 23.2530676,49.0635765 22.5858856,48.8026726 C21.7031404,48.4571833 21.0726082,48.0441847 20.4105493,47.3770331 C19.7484904,46.7098814 19.3386444,46.0760874 18.9950044,45.1861547 C18.736092,44.5150319 18.4275253,43.5063622 18.3435857,41.6478683 C18.2529467,39.6384711 18.2348189,39.0348577 18.2348189,33.9446496 C18.2348189,28.8544414 18.2529467,28.2540049 18.3435857,26.2446077 C18.4279194,24.3861138 18.736092,23.3774441 18.9950044,22.7055271 C19.3378563,21.8159915 19.7484904,21.180609 20.4105493,20.5134574 C21.0726082,19.8463057 21.7031404,19.4333071 22.5858856,19.0870236 C23.2526735,18.8249284 24.2540375,18.5151794 26.0983444,18.4297999 C27.8433425,18.350377 28.5195883,18.3265502 32.0450519,18.3225791 L32.0450519,18.3273444 Z M43.839158,21.4923436 C42.5859751,21.4923436 41.5692418,22.5157065 41.5692418,23.7789264 C41.5692418,25.0417492 42.5859751,26.0663035 43.839158,26.0663035 C45.0923408,26.0663035 46.1090741,25.0417492 46.1090741,23.7789264 C46.1090741,22.5161037 45.0923408,21.4915494 43.839158,21.4915494 L43.839158,21.4923436 Z M33.7419719,24.1649213 C28.3773245,24.1649213 24.0278341,28.5478693 24.0278341,33.9537832 C24.0278341,39.3596971 28.3773245,43.7406595 33.7419719,43.7406595 C39.1066192,43.7406595 43.4545333,39.3596971 43.4545333,33.9537832 C43.4545333,28.5478693 39.1062251,24.1649213 33.7415778,24.1649213 L33.7419719,24.1649213 Z M33.7419719,27.599958 C37.2240863,27.599958 40.0472945,30.4444861 40.0472945,33.9537832 C40.0472945,37.4626831 37.2240863,40.3076083 33.7419719,40.3076083 C30.2594633,40.3076083 27.4366492,37.4626831 27.4366492,33.9537832 C27.4366492,30.4444861 30.2594633,27.599958 33.7419719,27.599958 Z" id="Shape" fill="#FFFFFF" fill-rule="nonzero"></path>
        </g>
    </g>
</svg>