<?xml version="1.0" encoding="UTF-8"?>
<svg width="68px" height="68px" viewBox="0 0 68 68" version="1.1" xmlns="http://www.w3.org/2000/svg" xmlns:xlink="http://www.w3.org/1999/xlink">
    <title>pocketcasts</title>
    <g id="Page-1" stroke="none" stroke-width="1" fill="none" fill-rule="evenodd">
        <g id="pocketcasts">
            <path d="M67.558,34.2201905 C67.558,52.8764762 52.4352857,68 33.779,68 C15.1227143,68 0,52.8764762 0,34.2201905 C0,15.5647143 15.1227143,0.441190476 33.779,0.441190476 C52.4352857,0.441190476 67.558,15.5647143 67.558,34.2201905" id="Fill-1" fill="#D85E53"></path>
            <path d="M34.0914762,50.4843333 C25.2822381,50.4843333 18.140619,43.3427143 18.140619,34.5334762 C18.140619,25.7234286 25.2822381,18.5818095 34.0914762,18.5818095 C42.9015238,18.5818095 50.0431429,25.7234286 50.0431429,34.5334762 L44.2429048,34.5334762 C44.2429048,28.9267143 39.6982381,24.3820476 34.0914762,24.3820476 C28.4855238,24.3820476 23.9408571,28.9267143 23.9408571,34.5334762 C23.9408571,40.1394286 28.4855238,44.6832857 34.0914762,44.6832857 L34.0914762,50.4843333 Z M7.50590476,34.5334762 C7.50590476,19.8503333 19.4091429,7.94790476 34.0914762,7.94790476 C48.774619,7.94790476 60.6770476,19.8503333 60.6770476,34.5334762 L54.0308571,34.5334762 C54.0308571,23.5215238 45.1042381,14.5940952 34.0914762,14.5940952 C23.0795238,14.5940952 14.1529048,23.5215238 14.1529048,34.5334762 C14.1529048,45.5454286 23.0795238,54.4720476 34.0914762,54.4720476 L34.0914762,61.1190476 C19.4091429,61.1190476 7.50590476,49.2158095 7.50590476,34.5334762 L7.50590476,34.5334762 Z" id="Fill-4" fill="#FFFFFE"></path>
        </g>
    </g>
</svg>