<?xml version="1.0" encoding="UTF-8"?>
<svg width="69px" height="69px" viewBox="0 0 69 69" version="1.1" xmlns="http://www.w3.org/2000/svg" xmlns:xlink="http://www.w3.org/1999/xlink">
    <title>spotify</title>
    <g id="Page-1" stroke="none" stroke-width="1" fill="none" fill-rule="evenodd">
        <g id="spotify" transform="translate(0.253000, 0.277000)" fill-rule="nonzero">
            <path d="M33.999797,0 C15.2226262,0 0,15.2225838 0,34.000203 C0,52.7786342 15.2226262,68 33.999797,68 C52.7789978,68 68,52.7786342 68,34.000203 C68,15.2238018 52.7789978,0.00162404543 33.999391,0.00162404543 L33.999797,0 Z" fill="#1ED760"></path>
            <path d="M49.5918847,49.0380516 C48.9828823,50.0368396 47.6755569,50.3535284 46.6767928,49.7404513 C38.6939882,44.8642549 28.6446351,43.759904 16.8096867,46.4639396 C15.6692281,46.7237869 14.5324234,46.0092069 14.2725823,44.868315 C14.0115233,43.7274231 14.7232442,42.5905913 15.8665449,42.330744 C28.8179978,39.3717333 39.9274212,40.6457969 48.8895019,46.1228901 C49.888266,46.7359672 50.2049472,48.0392637 49.5918847,49.0380516 L49.5918847,49.0380516 Z" id="Path" fill="#FFFFFF"></path>
            <path d="M53.7534018,39.7801807 C52.9860586,41.0274476 51.3539319,41.4212786 50.1075069,40.6539171 C40.9684095,35.036344 27.0372745,33.4094565 16.2274803,36.6908403 C14.8255566,37.1143101 13.3448686,36.324212 12.9193788,34.9246909 C12.4971371,33.5227337 13.2876223,32.0448523 14.68711,31.6185404 C27.0348385,27.8718676 42.3853553,29.6867384 52.8804982,36.1362288 C54.1269233,36.9035902 54.5207449,38.5357559 53.7534018,39.7805867 L53.7534018,39.7801807 Z" id="Path" fill="#FFFFFF"></path>
            <path d="M54.1106832,30.139847 C43.1526984,23.631079 25.0734445,23.0326182 14.6111877,26.2080331 C12.9311529,26.7175773 11.1544896,25.7691348 10.6453635,24.0890598 C10.1362374,22.4081728 11.0838453,20.6326851 12.7650982,20.1219228 C24.7750333,16.4759408 44.7401649,17.1803705 57.3562605,24.670062 C58.8706467,25.5669411 59.3659687,27.5186377 58.468705,29.0277819 C57.5755014,30.5389562 55.6185734,31.0371321 54.1123072,30.139847 L54.1106832,30.139847 Z" id="Path" fill="#FFFFFF"></path>
        </g>
    </g>
</svg>