<?xml version="1.0" encoding="UTF-8"?>
<svg width="68px" height="68px" viewBox="0 0 68 68" version="1.1" xmlns="http://www.w3.org/2000/svg" xmlns:xlink="http://www.w3.org/1999/xlink">
    <title>twitter</title>
    <g id="Page-1" stroke="none" stroke-width="1" fill="none" fill-rule="evenodd">
        <g id="twitter" fill-rule="nonzero">
            <circle id="Oval" fill="#1CB7EB" cx="34" cy="34" r="34"></circle>
            <path d="M52.1333333,21.8166667 C50.8583333,22.525 49.3,22.95 47.8833333,23.0916667 C49.4416667,22.1 50.575,20.5416667 51.1416667,18.7 C49.725,19.55 48.1666667,20.2583333 46.325,20.6833333 C44.9083333,19.125 43.0666667,18.1333333 40.9416667,18.1333333 C36.8333333,18.1333333 33.4333333,21.675 33.4333333,26.2083333 C33.4333333,26.775 33.4333333,27.4833333 33.575,28.05 C27.3416667,27.7666667 21.8166667,24.5083333 18.1333333,19.6916667 C17.425,20.825 17.1416667,22.2416667 17.1416667,23.8 C17.1416667,26.6333333 18.4166667,29.0416667 20.4,30.4583333 C19.125,30.4583333 17.9916667,30.0333333 17,29.4666667 C17,29.4666667 17,29.6083333 17,29.6083333 C17,33.4333333 19.55,36.6916667 22.95,37.5416667 C22.3833333,37.6833333 21.675,37.825 20.9666667,37.825 C20.5416667,37.825 19.975,37.825 19.55,37.6833333 C20.5416667,40.9416667 23.2333333,43.2083333 26.4916667,43.2083333 C23.9416667,45.3333333 20.6833333,46.6083333 17.2833333,46.6083333 C16.7166667,46.6083333 16.15,46.6083333 15.4416667,46.4666667 C18.7,48.7333333 22.6666667,50.15 26.9166667,50.15 C40.6583333,50.15 48.1666667,37.9666667 48.1666667,27.3416667 C48.1666667,27.0583333 48.1666667,26.6333333 48.1666667,26.35 C49.8666667,24.9333333 51.1416667,23.5166667 52.1333333,21.8166667 Z" id="Path" fill="#FFFFFF"></path>
        </g>
    </g>
</svg>